<svg width="140" height="45" viewBox="0 0 140 45" fill="none" xmlns="http://www.w3.org/2000/svg">
<path d="M22.5007 44.9999L22.5007 33.7826L33.7819 33.7826L33.7819 41.0215C33.7819 41.6255 33.4414 42.174 32.906 42.454C29.7945 44.0808 26.2554 44.9999 22.5007 44.9999Z" fill="#14C585"/>
<path d="M11.2197 41.0222L11.2197 33.7819L22.5009 33.7819L22.5009 44.9993C18.7469 44.9993 15.2071 44.0795 12.0956 42.454C11.5602 42.174 11.219 41.6255 11.219 41.0215L11.2197 41.0222Z" fill="#A1E8CE"/>
<path d="M11.2197 22.5006L11.2197 11.2194L22.5009 11.2194L22.5009 16.5103C22.5009 16.7992 22.2668 17.0333 21.9779 17.0333L19.1643 17.0333C17.9871 17.0333 17.0329 17.9874 17.0329 19.1646L17.0329 21.9782C17.0329 22.2672 16.7989 22.5013 16.5099 22.5013L11.219 22.5013L11.2197 22.5006Z" fill="#A4B8E8"/>
<path d="M11.2194 11.2194L11.2194 3.97769C11.2194 3.37364 11.5599 2.82451 12.096 2.54514C15.2068 0.919711 18.7467 -8.16877e-05 22.5013 -8.2016e-05L22.5013 11.2187L11.2201 11.2187L11.2194 11.2194Z" fill="#1C4EC5"/>
<path d="M22.5007 11.2194L22.5007 0.000602755C26.2554 0.000602426 29.7945 0.9204 32.906 2.54652C33.4414 2.82657 33.7819 3.37502 33.7819 3.97906L33.7819 11.2194L22.5007 11.2194Z" fill="#A4B8E8"/>
<path d="M-4.00869e-05 22.5007L11.2187 22.5007L11.2187 33.7819L3.97842 33.7819C3.37437 33.7819 2.82593 33.4415 2.54587 32.9061C0.919068 29.7945 -3.97586e-05 26.2554 -4.00869e-05 22.5007Z" fill="#A4B8E8"/>
<path d="M0.000101089 22.5006C0.000100761 18.7466 0.919893 15.2068 2.54532 12.0952C2.82538 11.5598 3.37382 11.2187 3.97787 11.2187L11.2195 11.2187L11.2195 22.4999L0.00078392 22.4999L0.000101089 22.5006Z" fill="#1C4EC5"/>
<path d="M22.5008 33.7819L22.5008 28.491C22.5008 28.2021 22.7349 27.968 23.0239 27.968L25.8361 27.968C27.014 27.968 27.9688 27.0132 27.9688 25.8353L27.9688 23.0231C27.9688 22.7341 28.2029 22.5 28.4918 22.5L33.7827 22.5L33.7827 33.7812L22.5015 33.7812L22.5008 33.7819Z" fill="#A1E8CE"/>
<path d="M33.7816 33.7819L33.7816 22.5007L44.999 22.5007C44.999 26.2554 44.0792 29.7945 42.4531 32.9061C42.173 33.4415 41.6245 33.7819 41.0205 33.7819L33.7816 33.7819Z" fill="#14C585"/>
<path d="M33.7817 22.5006L33.7817 11.2194L41.022 11.2194C41.6261 11.2194 42.1752 11.5598 42.4546 12.0959C44.08 15.2068 44.9998 18.7466 44.9998 22.5013L33.7824 22.5013L33.7817 22.5006Z" fill="#A1E8CE"/>
<path d="M24.7385 26.1696L20.2617 26.1696C19.4717 26.1696 18.8306 25.5284 18.8306 24.7384L18.8306 20.2616C18.8306 19.4715 19.4717 18.8304 20.2617 18.8304L24.7385 18.8304C25.5286 18.8304 26.1697 19.4715 26.1697 20.2616L26.1697 24.7384C26.1697 25.5284 25.5286 26.1696 24.7385 26.1696Z" fill="#061027"/>
<path d="M54.4682 34.207V18.1578H56.2015V20.6133C56.79 19.7253 57.555 19.0191 58.4965 18.4949C59.4381 17.9706 60.4759 17.7084 61.6101 17.7084C62.8512 17.7084 63.98 18.0187 64.9964 18.6393C66.0236 19.2492 66.8207 20.0623 67.3878 21.0788C67.9548 20.0623 68.7466 19.2492 69.763 18.6393C70.7795 18.0187 71.9083 17.7084 73.1494 17.7084C74.3691 17.7084 75.4819 18.008 76.4876 18.6072C77.4934 19.1957 78.2905 19.9928 78.8789 20.9985C79.4781 22.0043 79.7777 23.117 79.7777 24.3367V34.207H78.0444V24.6577C78.0444 23.7269 77.8197 22.8709 77.3703 22.0899C76.9209 21.2981 76.3164 20.6615 75.5568 20.18C74.7971 19.6985 73.9519 19.4578 73.021 19.4578C72.1009 19.4578 71.2556 19.6825 70.4852 20.1319C69.7256 20.5705 69.1211 21.1804 68.6717 21.9615C68.2223 22.7425 67.9976 23.6413 67.9976 24.6577V34.207H66.2643V24.6577C66.2643 23.6413 66.0343 22.7425 65.5742 21.9615C65.1248 21.1804 64.5203 20.5705 63.7607 20.1319C63.001 19.6825 62.1557 19.4578 61.2249 19.4578C60.3047 19.4578 59.4648 19.6985 58.7052 20.18C57.9455 20.6615 57.3356 21.2981 56.8756 22.0899C56.4262 22.8709 56.2015 23.7269 56.2015 24.6577V34.207H54.4682ZM82.6721 18.1578H84.4054V34.207H82.6721V18.1578ZM83.5548 15.1245C83.2552 15.1245 82.9984 15.0282 82.7844 14.8357C82.5811 14.6324 82.4795 14.3809 82.4795 14.0813C82.4795 13.7818 82.5811 13.5357 82.7844 13.3431C82.9984 13.1398 83.2552 13.0381 83.5548 13.0381C83.8436 13.0381 84.0897 13.1398 84.293 13.3431C84.507 13.5357 84.614 13.7818 84.614 14.0813C84.614 14.3809 84.5124 14.6324 84.3091 14.8357C84.1058 15.0282 83.8543 15.1245 83.5548 15.1245ZM100.85 10.1333H103.546V34.207H100.85V31.4786C100.305 32.4202 99.5716 33.1798 98.6515 33.7576C97.7313 34.3354 96.6507 34.6242 95.4096 34.6242C94.2433 34.6242 93.152 34.4049 92.1355 33.9662C91.1191 33.5276 90.2203 32.923 89.4393 32.1527C88.6689 31.3716 88.0644 30.4729 87.6257 29.4564C87.1871 28.44 86.9677 27.3486 86.9677 26.1824C86.9677 25.0162 87.1871 23.9248 87.6257 22.9084C88.0644 21.8812 88.6689 20.9825 89.4393 20.2121C90.2203 19.4311 91.1191 18.8212 92.1355 18.3825C93.152 17.9438 94.2433 17.7245 95.4096 17.7245C96.6507 17.7245 97.7313 18.0134 98.6515 18.5912C99.5716 19.1689 100.305 19.9286 100.85 20.8701V10.1333ZM95.4417 32.0082C96.5009 32.0082 97.4157 31.7515 98.1861 31.2379C98.9671 30.7136 99.5663 30.0074 99.9836 29.1194C100.412 28.2313 100.626 27.2523 100.626 26.1824C100.626 25.0911 100.412 24.1067 99.9836 23.2294C99.5556 22.3413 98.9511 21.6405 98.17 21.1269C97.3997 20.6026 96.4902 20.3405 95.4417 20.3405C94.3824 20.3405 93.4195 20.6026 92.5528 21.1269C91.6969 21.6512 91.0121 22.3574 90.4985 23.2454C89.985 24.1228 89.7282 25.1018 89.7282 26.1824C89.7282 27.263 89.9903 28.2474 90.5146 29.1354C91.0388 30.0128 91.7343 30.7136 92.601 31.2379C93.4676 31.7515 94.4145 32.0082 95.4417 32.0082ZM113.98 34.6242C112.504 34.6242 111.156 34.2444 109.936 33.4848C108.727 32.7251 107.759 31.7087 107.031 30.4354C106.314 29.1515 105.956 27.7338 105.956 26.1824C105.956 25.0055 106.164 23.9088 106.582 22.8923C106.999 21.8652 107.571 20.9664 108.299 20.1961C109.037 19.415 109.893 18.8051 110.867 18.3665C111.841 17.9278 112.878 17.7084 113.98 17.7084C115.457 17.7084 116.8 18.0883 118.009 18.8479C119.229 19.6076 120.197 20.6294 120.914 21.9133C121.641 23.1973 122.005 24.6203 122.005 26.1824C122.005 27.3486 121.796 28.44 121.379 29.4564C120.962 30.4729 120.384 31.3716 119.646 32.1527C118.918 32.923 118.068 33.5276 117.094 33.9662C116.131 34.4049 115.093 34.6242 113.98 34.6242ZM113.98 31.928C114.986 31.928 115.89 31.6659 116.693 31.1416C117.506 30.6066 118.143 29.9058 118.603 29.0391C119.073 28.1618 119.309 27.2095 119.309 26.1824C119.309 25.1339 119.068 24.1709 118.587 23.2936C118.116 22.4162 117.479 21.7154 116.677 21.1911C115.874 20.6668 114.975 20.4047 113.98 20.4047C112.975 20.4047 112.071 20.6722 111.268 21.2072C110.466 21.7314 109.829 22.4322 109.358 23.3096C108.888 24.187 108.652 25.1446 108.652 26.1824C108.652 27.2523 108.893 28.226 109.374 29.1033C109.856 29.97 110.503 30.6601 111.316 31.1737C112.129 31.6766 113.017 31.928 113.98 31.928ZM135.303 29.97L137.711 31.27C136.983 32.2864 136.058 33.0996 134.934 33.7094C133.822 34.3193 132.613 34.6242 131.307 34.6242C129.831 34.6242 128.483 34.2444 127.263 33.4848C126.054 32.7251 125.086 31.7087 124.358 30.4354C123.641 29.1515 123.283 27.7338 123.283 26.1824C123.283 25.0055 123.491 23.9088 123.909 22.8923C124.326 21.8652 124.898 20.9664 125.626 20.1961C126.364 19.415 127.22 18.8051 128.194 18.3665C129.167 17.9278 130.205 17.7084 131.307 17.7084C132.613 17.7084 133.822 18.0134 134.934 18.6232C136.058 19.2331 136.983 20.0516 137.711 21.0788L135.303 22.3787C134.79 21.7475 134.18 21.2607 133.474 20.9183C132.768 20.5759 132.045 20.4047 131.307 20.4047C130.312 20.4047 129.408 20.6722 128.595 21.2072C127.792 21.7314 127.156 22.4322 126.685 23.3096C126.214 24.187 125.979 25.1446 125.979 26.1824C125.979 27.2202 126.214 28.1778 126.685 29.0552C127.167 29.9218 127.809 30.6173 128.611 31.1416C129.424 31.6659 130.323 31.928 131.307 31.928C132.099 31.928 132.843 31.7461 133.538 31.3823C134.234 31.0185 134.822 30.5478 135.303 29.97Z" fill="#061027"/>
</svg>
